<svg width="29" height="31" viewBox="0 0 29 31" fill="none" xmlns="http://www.w3.org/2000/svg">
<path d="M14.2591 0.0351562C13.9508 0.0351562 13.6714 0.141146 13.4401 0.372396L11.2721 2.39583L8.8151 1.91406C8.04427 1.7599 7.57214 2.26094 7.41797 2.8776L6.9362 5.6237L4.33464 6.8763C3.71797 7.18463 3.54453 7.8013 3.85286 8.41797L5.10547 10.875L3.85286 13.332C3.54453 13.9487 3.87214 14.5654 4.33464 14.8737L6.9362 16.1263L7.41797 18.8724C7.57214 19.4891 8.19844 19.9901 8.8151 19.8359L11.7057 19.3542L13.8737 21.3776C14.3362 21.8401 15.0974 21.8401 15.5599 21.3776L17.7279 19.3542L20.6667 19.8359C21.2833 19.9901 21.9096 19.4891 22.0638 18.8724L22.4974 16.1263L25.1471 14.8737C25.7638 14.5654 25.8891 13.9487 25.5807 13.332L23.8945 10.875L25.1471 8.41797C25.4555 7.8013 25.282 7.18463 24.6654 6.8763L22.0638 5.6237L21.582 2.8776C21.4279 2.26094 20.8016 1.7599 20.1849 1.91406L17.2943 2.39583L15.1263 0.372396C14.8951 0.141146 14.5674 0.0351562 14.2591 0.0351562ZM5.39453 17.1862L0.625 26.7734L6.16536 26.0026L8.95963 30.9167L12.9583 22.7266L12.6693 22.4375L11.1276 21.0404L8.95963 21.3776C7.57213 21.5318 6.18464 20.5971 5.8763 19.2096L5.53906 17.1862H5.39453ZM23.6055 17.1862L23.1237 19.2096C22.8154 20.443 21.7555 21.3776 20.5221 21.3776H20.1849L18.0651 21.0404L16.5234 22.4375L16.1862 22.7266L20.1849 30.9167L22.9792 26.1471L28.5195 26.918L23.6055 17.1862Z" fill="#FDC100"/>
</svg>
