<svg width="354" height="111" viewBox="0 0 354 111" fill="none" xmlns="http://www.w3.org/2000/svg">
<path d="M123.248 65.969C123.845 67.805 124.732 69.252 125.908 70.313C127.083 71.372 128.375 71.902 129.785 71.902C131.622 71.902 133.523 71.079 135.489 69.43C136.997 68.165 138.44 66.674 139.823 64.967C139.995 65.381 140.17 65.791 140.361 66.18C142.241 69.994 145.209 71.902 149.269 71.902C152.089 71.902 154.611 70.889 156.832 68.865C158.114 67.689 158.755 66.111 158.755 64.134C158.755 63.239 158.595 62.474 158.276 61.839C157.956 61.202 157.539 60.884 157.026 60.884C156.554 60.884 156.086 61.12 155.616 61.591C154.847 62.343 154.003 62.956 153.085 63.427C152.165 63.899 151.343 64.134 150.617 64.134C149.291 64.134 148.246 63.71 147.475 62.863C146.706 62.015 146.151 60.603 145.809 58.625C150.551 52.409 154.355 46.171 157.217 39.908C160.079 33.644 161.511 27.995 161.511 22.956C161.511 19.096 160.904 16.211 159.685 14.305C158.467 12.397 156.812 11.444 154.718 11.445C151.171 11.445 148.094 13.598 145.489 17.908C142.881 22.216 140.906 27.468 139.559 33.658C138.213 39.85 137.539 45.606 137.539 50.927C137.539 53.418 137.688 55.706 137.977 57.807C136.375 59.874 135.076 61.409 134.08 62.405C132.926 63.558 131.943 64.134 131.132 64.134C130.619 64.134 130.202 63.922 129.882 63.498C129.563 63.074 129.403 62.511 129.403 61.804C129.403 59.685 129.894 55.918 130.877 50.502C131.518 46.783 131.838 44.429 131.838 43.439C131.838 41.793 130.791 40.968 128.698 40.968C127.715 40.968 126.775 41.062 125.878 41.25C125.663 40.215 125.398 39.497 125.077 39.097C124.755 38.698 124.124 38.496 123.184 38.496C120.237 38.496 117.449 39.518 114.822 41.568C112.195 43.617 110.089 46.325 108.509 49.69C108.156 50.44 107.85 51.202 107.576 51.972C107.548 51.976 107.514 51.98 107.486 51.984C105.392 52.313 103.491 52.477 101.782 52.477C101.269 52.477 100.821 52.455 100.436 52.408C99.24 52.313 98.213 52.266 97.36 52.266C96.888 52.266 96.355 52.62 95.756 53.326C95.157 54.032 94.655 54.856 94.25 55.798C93.843 56.741 93.662 57.519 93.705 58.129C94.474 61.943 95.083 65.569 95.531 69.006C95.98 72.443 96.204 75.998 96.204 79.671C96.204 84.567 95.563 87.017 94.282 87.017C93.596 87.017 93.106 84.461 92.807 79.353C92.506 74.245 92.359 69.267 92.359 64.415C92.359 60.933 92.572 56.882 93 52.267C105.006 39.226 111.01 27.17 111.01 16.105C111.01 12.761 110.445 10.101 109.313 8.124C108.179 6.146 106.61 5.157 104.602 5.157C100.883 5.157 97.477 8.206 94.378 14.304C91.279 20.402 88.843 28.101 87.071 37.4C85.666 44.768 84.828 52.051 84.536 59.256C83.449 60.605 82.529 61.657 81.782 62.404C80.628 63.557 79.645 64.133 78.834 64.133C78.321 64.133 77.904 63.921 77.584 63.497C77.264 63.073 77.105 62.51 77.105 61.803C77.105 59.684 77.595 55.917 78.579 50.501C79.22 46.782 79.54 44.428 79.54 43.438C79.54 41.792 78.493 40.967 76.4 40.967C75.417 40.967 74.476 41.061 73.58 41.249C73.365 40.214 73.099 39.496 72.779 39.096C72.457 38.697 71.826 38.495 70.886 38.495C67.939 38.495 65.151 39.517 62.524 41.567C59.897 43.616 57.791 46.324 56.211 49.689C54.63 53.056 53.84 56.623 53.84 60.39C53.84 60.648 53.854 60.895 53.862 61.145C53.537 61.46 53.228 61.74 52.939 61.976C51.7 62.99 50.396 63.495 49.03 63.495C47.492 63.495 46.135 62.836 44.961 61.517C43.785 60.199 42.599 58.125 41.403 55.3C40.292 52.664 39.18 50.663 38.071 49.298C36.959 47.933 35.379 46.944 33.328 46.331C36.575 45.39 39.331 43.953 41.596 42.022C43.862 40.092 45.559 37.868 46.693 35.348C47.825 32.829 48.39 30.252 48.39 27.614C48.39 24.6 47.717 21.893 46.371 19.492C45.025 17.091 42.962 15.208 40.185 13.843C37.408 12.478 33.968 11.794 29.867 11.794C23.971 11.794 18.769 13.314 14.261 16.351C9.753 19.388 6.249 23.778 3.75 29.522C1.25 35.266 0 42.094 0 50.004C0 54.242 0.599 58.021 1.795 61.34C2.991 64.66 4.691 67.25 6.891 69.111C9.091 70.972 11.623 71.901 14.487 71.901C17.091 71.901 19.038 71.137 20.319 69.606C21.6 68.077 22.454 65.875 22.882 63.002C22.968 62.485 23.181 61.05 23.525 58.694C24.336 53.467 24.828 50.36 24.999 49.371C26.152 49.513 27.124 49.913 27.915 50.572C28.705 51.231 29.506 52.326 30.318 53.856C31.13 55.387 32.241 57.752 33.651 60.954C35.403 64.957 37.251 67.783 39.195 69.431C41.138 71.079 43.5 71.903 46.277 71.903C49.139 71.903 51.618 71.161 53.712 69.677C54.392 69.196 55.069 68.642 55.744 68.029C55.893 68.266 56.047 68.501 56.213 68.724C57.793 70.843 59.909 71.903 62.556 71.903C65.931 71.903 68.731 69.924 70.952 65.97C71.549 67.806 72.435 69.253 73.612 70.314C74.787 71.373 76.079 71.903 77.489 71.903C79.326 71.903 81.226 71.08 83.193 69.431C83.616 69.077 84.031 68.696 84.444 68.307C84.582 76.318 85.222 82.439 86.369 86.662C87.671 91.466 89.862 93.867 92.937 93.867C95.373 93.867 97.337 92.525 98.833 89.841C100.328 87.157 101.076 83.273 101.076 78.187C101.076 75.88 100.893 72.949 100.531 69.394C100.168 65.841 99.709 62.603 99.153 59.683C101.076 60.108 102.55 60.32 103.576 60.32C104.517 60.32 105.371 60.258 106.145 60.141C106.144 60.224 106.138 60.306 106.138 60.39C106.138 63.828 106.928 66.605 108.509 68.724C110.089 70.843 112.205 71.903 114.852 71.903C118.227 71.902 121.027 69.923 123.248 65.969ZM146.802 34.961C147.72 30.065 148.811 26.051 150.072 22.919C151.332 19.788 152.475 18.223 153.501 18.223C154.697 18.223 155.296 19.871 155.296 23.166C155.296 30.842 151.985 39.719 145.361 49.794C145.403 44.803 145.883 39.86 146.802 34.961ZM97.038 27.864C98.148 23.132 99.269 19.33 100.402 16.457C101.534 13.586 102.485 12.149 103.254 12.149C104.322 12.149 104.858 13.586 104.858 16.458C104.813 20.509 103.875 24.851 102.038 29.489C100.2 34.127 97.572 38.589 94.154 42.873C94.965 37.6 95.926 32.596 97.038 27.864ZM26.217 41.953L28.14 30.228C28.182 29.945 28.204 29.545 28.204 29.027C28.204 26.626 26.987 25.425 24.551 25.425C21.517 25.425 19.722 26.955 19.167 30.015C18.568 33.361 17.927 37.339 17.244 41.953H15.64C14.786 41.953 14.028 42.283 13.366 42.942C12.703 43.601 12.373 44.496 12.373 45.626C12.373 46.568 12.64 47.416 13.174 48.169C13.708 48.924 14.701 49.299 16.154 49.299L14.424 59.895C14.21 61.26 13.921 62.249 13.559 62.861C13.197 63.473 12.737 63.779 12.181 63.779C11.454 63.779 10.686 63.238 9.873 62.154C9.06 61.072 8.377 59.447 7.822 57.281C7.265 55.115 6.989 52.525 6.989 49.51C6.989 43.061 7.864 37.586 9.617 33.089C11.368 28.594 13.815 25.203 16.956 22.918C20.095 20.635 23.759 19.493 27.947 19.493C31.493 19.493 34.184 20.34 36.023 22.035C37.859 23.73 38.779 26.06 38.779 29.027C38.779 31.476 38.212 33.666 37.08 35.595C35.948 37.528 34.43 39.033 32.53 40.116C30.628 41.201 28.526 41.813 26.217 41.953ZM69.414 58.057C69.03 60.082 68.41 61.707 67.556 62.932C66.702 64.157 65.803 64.768 64.864 64.768C63.924 64.768 63.186 64.414 62.653 63.708C62.118 63.001 61.851 61.919 61.851 60.459C61.851 57.822 62.3 55.327 63.198 52.973C64.094 50.619 65.301 48.723 66.819 47.286C68.335 45.849 69.992 45.108 71.786 45.06L69.414 58.057ZM117.162 64.768C116.222 64.768 115.485 64.414 114.951 63.708C114.416 63.001 114.15 61.919 114.15 60.459C114.15 57.822 114.598 55.327 115.496 52.973C116.392 50.619 117.599 48.723 119.117 47.286C120.633 45.849 122.29 45.108 124.084 45.06L121.713 58.056C121.329 60.081 120.709 61.706 119.856 62.931C118.998 64.156 118.101 64.768 117.162 64.768Z" fill="#FDC100"/>
<path d="M170.165 5.014C170.165 3.65 169.353 2.473 167.729 1.484C166.105 0.495002 163.541 1.5588e-06 160.039 0.00100156C155.723 0.00100156 151.215 1.273 146.516 3.815C145.02 4.616 143.953 5.404 143.311 6.18C142.67 6.957 142.35 7.865 142.35 8.9C142.35 9.701 142.595 10.395 143.086 10.983C143.577 11.573 144.274 11.866 145.169 11.866C145.811 11.866 146.419 11.749 146.996 11.512C147.573 11.279 148.416 10.854 149.527 10.241C151.279 9.299 152.881 8.558 154.335 8.015C155.787 7.474 157.517 7.202 159.526 7.202C161.149 7.202 162.815 7.439 164.525 7.909C165.506 8.145 166.254 8.263 166.767 8.263C167.793 8.263 168.616 7.98 169.236 7.414C169.855 6.85 170.165 6.051 170.165 5.014Z" fill="#FDC100"/>
<path d="M246.116 33.973C247.953 33.973 249.427 33.419 250.538 32.313C251.649 31.207 252.205 29.711 252.205 27.828C252.205 26.274 251.712 25.074 250.73 24.225C249.746 23.378 248.464 22.954 246.883 22.954C245.131 22.954 243.668 23.508 242.493 24.614C241.317 25.72 240.73 27.097 240.73 28.746C240.73 30.395 241.178 31.678 242.076 32.596C242.973 33.514 244.32 33.973 246.116 33.973Z" fill="#FDC100"/>
<path d="M316.165 11.865C316.549 11.865 316.975 11.806 317.446 11.689C317.916 11.571 318.45 11.371 319.049 11.087C319.648 10.806 320.053 10.617 320.267 10.523C322.148 9.582 324.048 8.828 325.971 8.263C327.895 7.698 330.265 7.414 333.085 7.414C334.11 7.414 335.52 7.58 337.315 7.909C338.296 8.145 339.086 8.263 339.685 8.263C340.711 8.263 341.534 7.98 342.154 7.414C342.772 6.849 343.083 6.05 343.083 5.013C343.083 3.649 342.271 2.472 340.647 1.483C339.023 0.494001 336.459 -0.000998488 332.957 1.5121e-06C330.264 1.5121e-06 327.541 0.354002 324.785 1.061C322.03 1.766 319.603 2.684 317.511 3.815C316.015 4.616 314.948 5.404 314.306 6.18C313.665 6.957 313.345 7.865 313.345 8.9C313.345 9.701 313.59 10.395 314.082 10.983C314.573 11.572 315.268 11.865 316.165 11.865Z" fill="#FDC100"/>
<path d="M352.376 46.12C351.48 43.86 350.133 42.036 348.339 40.646C346.544 39.257 344.386 38.563 341.865 38.563C339.258 38.563 336.908 39.351 334.815 40.929C332.719 42.507 331.065 44.696 329.846 47.496C328.628 50.298 328.021 53.489 328.021 57.067C328.021 58 328.1 58.902 328.216 59.792C327.221 60.94 326.341 61.84 325.584 62.472C324.26 63.578 322.721 64.132 320.97 64.132C319.86 64.132 318.962 63.708 318.279 62.861C317.594 62.013 317.103 60.601 316.804 58.623C321.547 52.362 325.349 46.111 328.212 39.871C331.074 33.633 332.506 27.994 332.506 22.955C332.506 19.096 331.899 16.21 330.68 14.303C329.462 12.397 327.806 11.443 325.713 11.443C322.166 11.443 319.089 13.596 316.484 17.906C313.876 22.214 311.901 27.465 310.554 33.656C309.208 39.848 308.535 45.604 308.535 50.925C308.535 53.441 308.685 55.75 308.974 57.873C307.224 60.017 305.293 61.658 303.182 62.79C300.724 64.109 298.301 64.769 295.909 64.769C293.73 64.769 292.084 64.345 290.972 63.498C289.862 62.65 289.306 61.568 289.306 60.249C289.306 58.178 290.589 56.094 293.153 53.998C295.716 51.904 298.942 49.937 302.831 48.102C304.198 47.444 305.202 46.69 305.844 45.841C306.486 44.994 306.805 43.817 306.805 42.311C306.805 40.946 306.58 39.934 306.132 39.274C305.684 38.615 305.117 38.285 304.434 38.285C304.007 38.285 303.484 38.379 302.865 38.567C302.245 38.755 301.828 38.874 301.615 38.92C300.418 39.297 299.606 39.485 299.178 39.485C297.94 39.485 296.411 39.414 294.596 39.272C292.78 39.13 291.531 39.037 290.846 38.99C287.555 38.662 284.928 38.496 282.963 38.496C282.108 38.496 281.434 38.933 280.943 39.804C280.452 40.674 280.207 41.674 280.207 42.804C280.207 43.888 280.452 44.818 280.943 45.595C281.433 46.371 282.15 46.737 283.089 46.689L293.6 46.407C289.371 48.621 286.122 50.928 283.859 53.329C282.227 55.059 281.193 56.977 280.737 59.075C278.65 61.598 276.783 63.224 275.142 63.925C275.227 63.077 275.27 62.418 275.27 61.947C275.27 60.299 274.917 58.78 274.212 57.39C273.507 56.002 272.47 54.319 271.105 52.34C270.165 51.069 269.469 50.011 269.022 49.162C268.573 48.313 268.347 47.538 268.347 46.831C268.347 45.655 268.732 44.218 269.501 42.522C269.799 41.912 270.034 41.298 270.206 40.686C270.376 40.076 270.462 39.627 270.462 39.344C270.462 38.826 270.228 38.45 269.757 38.214C269.286 37.979 268.453 37.861 267.258 37.861C264.695 37.861 263.007 38.896 262.195 40.968C261.254 43.417 260.293 45.782 259.311 48.066C258.328 50.351 257.473 52.175 256.747 53.541C255.587 55.552 253.872 58.104 251.626 61.178C251.23 61.628 250.864 62.03 250.532 62.367C249.378 63.545 248.417 64.133 247.648 64.133C246.835 64.133 246.259 63.758 245.918 63.003C245.575 62.251 245.405 61.167 245.405 59.754C245.405 57.918 245.918 54.411 246.943 49.231C247.755 44.947 248.161 42.215 248.161 41.038C248.161 39.438 247.071 38.638 244.892 38.638C243.482 38.638 242.456 38.92 241.816 39.486C241.173 40.05 240.662 41.087 240.277 42.593C239.507 45.464 238.877 48.56 238.385 51.88C237.977 54.646 237.748 56.969 237.68 58.901C236.539 60.256 235.543 61.288 234.699 61.977C233.46 62.992 232.156 63.497 230.79 63.497C229.251 63.497 227.905 62.851 226.752 61.556C225.598 60.261 224.358 58.06 223.034 54.952C222.094 52.74 221.261 51.01 220.535 49.762C219.807 48.514 218.922 47.467 217.875 46.618C216.828 45.771 215.493 45.135 213.869 44.711C218.569 43.205 222.906 40.168 226.88 35.6C230.855 31.034 233.908 24.866 236.045 17.096C236.216 16.342 236.302 15.801 236.302 15.471C236.302 14.389 235.97 13.553 235.31 12.963C234.647 12.375 233.716 12.08 232.522 12.08C231.112 12.08 229.947 12.434 229.029 13.141C228.109 13.846 227.459 14.86 227.074 16.178C224.98 23.334 222.363 28.996 219.221 33.163C216.081 37.331 212.011 39.697 207.012 40.262L209.511 21.262C211.52 21.262 212.525 19.967 212.525 17.377C212.525 15.447 211.477 14.128 209.383 13.422C207.46 12.764 205.698 12.317 204.096 12.08C202.494 11.846 200.732 11.726 198.808 11.726C194.408 11.726 190.71 12.468 187.72 13.952C184.73 15.436 182.497 17.402 181.024 19.849C179.548 22.298 178.813 25.005 178.813 27.972C178.813 30.845 179.454 33.53 180.735 36.025C181.377 37.343 182.38 38.003 183.748 38.003C184.815 38.003 185.788 37.614 186.664 36.837C187.54 36.061 187.978 35.155 187.978 34.118C187.978 33.648 187.892 33.224 187.72 32.847C187.335 31.952 187.025 31.14 186.791 30.409C186.555 29.68 186.438 28.725 186.438 27.55C186.438 24.96 187.376 22.97 189.256 21.581C191.136 20.193 193.892 19.498 197.526 19.498C198.508 19.498 199.554 19.568 200.666 19.709L198.68 35.601C198.552 36.497 198.337 38.097 198.039 40.405H195.924C195.07 40.405 194.355 40.771 193.778 41.5C193.202 42.23 192.913 43.207 192.913 44.432C192.913 45.516 193.19 46.363 193.746 46.975C194.302 47.586 195.071 47.893 196.054 47.893H197.079L196.182 54.602C195.669 58.182 194.804 60.831 193.586 62.549C192.368 64.267 190.904 65.126 189.196 65.126C187.7 65.126 186.45 64.584 185.446 63.501C184.442 62.419 183.277 60.512 181.953 57.78C181.611 57.027 181.249 56.498 180.864 56.191C180.479 55.884 180.009 55.732 179.454 55.732C178.513 55.732 177.744 56.251 177.146 57.286C176.547 58.322 176.249 59.545 176.249 60.958C176.249 61.947 176.398 62.865 176.698 63.713C177.594 66.162 179.186 68.176 181.471 69.752C183.757 71.33 186.375 72.118 189.324 72.118C193.852 72.118 197.41 70.635 199.995 67.668C202.58 64.701 204.322 59.852 205.219 53.118L205.924 47.89C207.163 48.033 208.189 48.42 209 49.056C209.813 49.693 210.635 50.776 211.468 52.306C212.301 53.836 213.36 56.155 214.641 59.263C216.393 63.595 218.273 66.784 220.282 68.832C222.29 70.88 224.875 71.904 228.038 71.904C230.9 71.904 233.378 71.162 235.473 69.678C236.557 68.91 237.634 67.973 238.706 66.87C238.945 67.51 239.224 68.105 239.543 68.654C240.803 70.82 242.822 71.903 245.598 71.902C249.271 71.902 253.225 69.054 257.454 63.355C257.67 63.08 257.852 62.769 258.012 62.434C258.24 62.127 258.485 61.833 258.706 61.521C260.008 59.685 261.323 57.378 262.647 54.599C263.246 55.353 263.885 56.236 264.57 57.247C265.253 58.261 265.82 59.308 266.268 60.39C266.716 61.474 266.961 62.627 267.004 63.851C266.619 63.806 266.053 63.722 265.306 63.605C264.558 63.488 263.907 63.427 263.352 63.427C261.771 63.427 260.575 63.875 259.762 64.769C258.949 65.665 258.544 66.724 258.544 67.948C258.544 69.361 259.131 70.633 260.307 71.761C261.483 72.889 263.18 73.456 265.399 73.457C267.749 73.457 269.779 72.656 271.488 71.056C274.349 70.961 276.754 70.384 278.699 69.326C279.746 68.756 280.822 67.905 281.925 66.795C282.009 66.931 282.072 67.073 282.162 67.206C283.294 68.878 284.928 70.197 287.065 71.161C289.201 72.126 291.721 72.609 294.628 72.609C298.345 72.609 301.689 71.784 304.658 70.136C307.009 68.833 309.052 67.14 310.8 65.069C310.949 65.434 311.097 65.8 311.26 66.146C313.075 69.985 315.864 71.903 319.624 71.903C322.358 71.903 324.804 71.103 326.962 69.502C328.16 68.613 329.305 67.571 330.404 66.405C331.201 67.735 332.178 68.885 333.372 69.819C335.143 71.209 337.291 71.903 339.814 71.901C342.377 71.901 344.716 71.113 346.832 69.535C348.947 67.959 350.624 65.769 351.863 62.967C353.102 60.167 353.72 56.977 353.72 53.397C353.722 50.807 353.274 48.381 352.376 46.12ZM317.798 34.961C318.717 30.065 319.806 26.051 321.068 22.919C322.328 19.788 323.47 18.223 324.498 18.223C325.693 18.223 326.292 19.871 326.292 23.166C326.292 30.842 322.98 39.719 316.358 49.794C316.4 44.803 316.879 39.86 317.798 34.961ZM344.204 61.659C343.2 63.402 341.971 64.273 340.52 64.273C339.238 64.273 338.168 63.636 337.315 62.366C336.46 61.095 336.034 59.117 336.034 56.433C336.034 53.041 336.535 50.489 337.54 48.769C338.542 47.05 339.815 46.191 341.353 46.191C342.547 46.191 343.574 46.851 344.428 48.169C345.282 49.488 345.71 51.442 345.71 54.031C345.711 57.375 345.208 59.917 344.204 61.659Z" fill="#FDC100"/>
<path d="M117.75 90.055H123.115L123.116 105.34H124.729V90.055H130.092V88.518H117.75V90.055Z" fill="#FDC100"/>
<path d="M133.511 95.174V92.699H132.03V105.34H133.579V98.9C133.579 95.92 135.04 94.238 137.438 94.238C137.545 94.238 137.676 94.262 137.807 94.262V92.604C135.693 92.604 134.232 93.492 133.511 95.174Z" fill="#FDC100"/>
<path d="M144.936 92.602C141.708 92.602 139.332 95.27 139.332 99.02C139.332 102.77 141.774 105.46 145.35 105.46C147.162 105.46 148.753 104.739 149.778 103.393L148.906 102.289C148.033 103.393 146.791 103.947 145.394 103.947C142.886 103.947 141.055 102.193 140.88 99.55H150.475C150.475 99.358 150.497 99.165 150.497 99.021C150.496 95.223 148.163 92.602 144.936 92.602ZM140.879 98.276C141.076 95.799 142.71 94.07 144.935 94.07C147.181 94.07 148.817 95.799 149.013 98.276H140.879Z" fill="#FDC100"/>
<path d="M159.496 92.604C157.512 92.604 155.964 93.493 155.135 95.031V92.7H153.654V105.341H155.202V98.708C155.202 95.824 156.751 94.142 159.215 94.142C161.394 94.142 162.66 95.513 162.66 98.181V105.341H164.208V98.011C164.207 94.381 162.288 92.604 159.496 92.604Z" fill="#FDC100"/>
<path d="M172.903 92.602C169.675 92.602 167.299 95.27 167.299 99.02C167.299 102.77 169.742 105.46 173.319 105.46C175.129 105.46 176.72 104.739 177.745 103.393L176.873 102.289C176.001 103.393 174.758 103.947 173.362 103.947C170.855 103.947 169.023 102.193 168.847 99.55H178.443C178.443 99.358 178.464 99.165 178.464 99.021C178.463 95.223 176.13 92.602 172.903 92.602ZM168.846 98.276C169.042 95.799 170.678 94.07 172.903 94.07C175.149 94.07 176.785 95.799 176.981 98.276H168.846Z" fill="#FDC100"/>
<path d="M183.104 95.174V92.699H181.621V105.34H183.17V98.9C183.17 95.92 184.631 94.238 187.029 94.238C187.137 94.238 187.268 94.262 187.399 94.262V92.604C185.285 92.604 183.824 93.492 183.104 95.174Z" fill="#FDC100"/>
<path d="M202.114 88.518H196.401V105.34H198.014V100.029H202.114C205.996 100.029 208.349 97.866 208.349 94.285C208.349 90.68 205.996 88.518 202.114 88.518ZM202.071 98.467H198.014V90.057H202.071C205.124 90.057 206.737 91.594 206.737 94.286C206.737 96.93 205.123 98.467 202.071 98.467Z" fill="#FDC100"/>
<path d="M215.889 92.602C212.662 92.602 210.285 95.27 210.285 99.02C210.285 102.77 212.728 105.46 216.304 105.46C218.115 105.46 219.706 104.739 220.731 103.393L219.859 102.289C218.987 103.393 217.744 103.947 216.347 103.947C213.84 103.947 212.008 102.193 211.833 99.55H221.428C221.428 99.358 221.45 99.165 221.45 99.021C221.451 95.223 219.118 92.602 215.889 92.602ZM211.833 98.276C212.03 95.799 213.665 94.07 215.889 94.07C218.135 94.07 219.772 95.799 219.967 98.276H211.833Z" fill="#FDC100"/>
<path d="M226.09 95.174V92.699H224.608V105.34H226.157V98.9C226.157 95.92 227.618 94.238 230.015 94.238C230.123 94.238 230.254 94.262 230.385 94.262V92.604C228.272 92.604 226.811 93.492 226.09 95.174Z" fill="#FDC100"/>
<path d="M233.631 96.159C233.631 94.958 234.547 94.068 236.618 94.068C237.796 94.068 238.995 94.381 239.998 95.15L240.674 93.78C239.715 93.058 238.1 92.601 236.618 92.601C233.696 92.601 232.083 94.14 232.083 96.206C232.083 101.205 239.52 98.61 239.52 101.902C239.52 103.152 238.625 103.969 236.445 103.969C234.832 103.969 233.284 103.344 232.368 102.551L231.671 103.897C232.609 104.786 234.441 105.459 236.337 105.459C239.324 105.459 241.068 104.041 241.068 101.855C241.068 97 233.631 99.572 233.631 96.159Z" fill="#FDC100"/>
<path d="M248.61 92.602C245.251 92.602 242.765 95.27 242.765 99.02C242.765 102.77 245.251 105.46 248.61 105.46C251.967 105.46 254.431 102.77 254.431 99.02C254.431 95.27 251.968 92.602 248.61 92.602ZM248.61 103.947C246.168 103.947 244.337 101.975 244.337 99.02C244.337 96.065 246.168 94.094 248.61 94.094C251.051 94.094 252.862 96.064 252.862 99.02C252.862 101.975 251.051 103.947 248.61 103.947Z" fill="#FDC100"/>
<path d="M263.431 92.604C261.449 92.604 259.9 93.493 259.072 95.031V92.7H257.589V105.341H259.138V98.708C259.138 95.824 260.687 94.142 263.151 94.142C265.331 94.142 266.595 95.513 266.595 98.181V105.341H268.143V98.011C268.142 94.381 266.223 92.604 263.431 92.604Z" fill="#FDC100"/>
<path d="M276.361 92.604C274.55 92.604 272.85 93.229 271.695 94.311L272.391 95.583C273.329 94.67 274.725 94.094 276.207 94.094C278.344 94.094 279.455 95.27 279.455 97.434V98.203H275.814C272.521 98.203 271.386 99.837 271.386 101.784C271.386 103.972 272.979 105.461 275.574 105.461C277.47 105.461 278.823 104.668 279.52 103.37V105.341H281.002V97.506C281.003 94.238 279.325 92.604 276.361 92.604ZM279.455 101.543C278.844 103.201 277.558 104.115 275.814 104.115C273.982 104.115 272.914 103.202 272.914 101.736C272.914 100.438 273.633 99.476 275.857 99.476H279.455V101.543Z" fill="#FDC100"/>
<path d="M286.756 87.508H285.207V105.34H286.756V87.508Z" fill="#FDC100"/>
<path d="M296.913 92.604C294.93 92.604 293.381 93.493 292.553 95.031V92.7H291.071V105.341H292.62V98.708C292.62 95.824 294.168 94.142 296.632 94.142C298.812 94.142 300.077 95.513 300.077 98.181V105.341H301.625V98.011C301.624 94.381 299.706 92.604 296.913 92.604Z" fill="#FDC100"/>
<path d="M309.407 103.444L305.09 92.701H303.476L308.6 105.318L308.099 106.544C307.446 108.131 306.747 108.659 305.722 108.659C304.894 108.659 304.196 108.323 303.629 107.698L302.909 108.971C303.606 109.74 304.632 110.123 305.7 110.123C307.334 110.123 308.555 109.33 309.514 106.853L315.249 92.7H313.723L309.407 103.444Z" fill="#FDC100"/>
<path d="M340.505 93.961L341.46 89.418C342.012 86.807 340.341 84.242 337.729 83.691C337.402 83.621 337.068 83.587 336.732 83.587H328.908C326.239 83.587 324.074 85.751 324.074 88.42C324.074 88.756 324.109 89.088 324.178 89.416L325.134 93.959C321.08 98.204 321.236 104.934 325.482 108.987C325.9 109.386 326.35 109.752 326.832 110.08V110.083C326.906 110.133 326.992 110.157 327.081 110.157H338.56C338.651 110.157 338.736 110.133 338.809 110.083C343.66 106.773 344.908 100.16 341.599 95.311C341.27 94.832 340.907 94.381 340.505 93.961ZM325.042 89.235C324.796 88.07 325.088 86.857 325.84 85.934C326.589 85.008 327.718 84.471 328.906 84.473H336.73C338.912 84.473 340.676 86.242 340.676 88.422C340.676 88.694 340.65 88.967 340.592 89.235L340.476 89.788H338.507L338.666 88.824C338.868 87.617 338.054 86.476 336.847 86.276C336.728 86.255 336.607 86.246 336.484 86.246H329.152C327.927 86.246 326.937 87.237 326.937 88.46C326.937 88.582 326.948 88.703 326.965 88.824L327.127 89.788H325.156L325.042 89.235ZM337.813 88.458C337.813 88.531 337.808 88.604 337.795 88.676L337.298 91.66C334.453 90.364 331.184 90.364 328.34 91.66L327.842 88.68C327.72 87.955 328.207 87.27 328.931 87.148C329.004 87.135 329.078 87.129 329.154 87.129H336.486C337.217 87.131 337.815 87.725 337.813 88.458ZM339.707 108.194C339.311 108.59 338.879 108.951 338.42 109.274H327.216C322.813 106.18 321.751 100.104 324.846 95.7C325.167 95.242 325.531 94.811 325.925 94.414C326.031 94.31 326.078 94.157 326.048 94.012L325.347 90.675H327.278L327.566 92.402C327.6 92.616 327.787 92.771 328.004 92.771C328.076 92.771 328.15 92.754 328.212 92.718C331.091 91.175 334.55 91.175 337.428 92.718C337.644 92.834 337.911 92.754 338.03 92.538C338.052 92.495 338.069 92.448 338.077 92.4L338.364 90.672H340.295L339.594 94.008C339.564 94.154 339.608 94.307 339.713 94.412C343.513 98.219 343.513 104.387 339.707 108.194Z" fill="#FDC100"/>
</svg>
