<svg width="388" height="129" viewBox="0 0 388 129" fill="none" xmlns="http://www.w3.org/2000/svg">
<path d="M165.965 67.6931C165.965 86.0153 151.641 99.5166 134.063 99.5166C116.484 99.5166 102.16 86.0153 102.16 67.6931C102.16 49.2418 116.484 35.8696 134.063 35.8696C151.641 35.8696 165.965 49.2418 165.965 67.6931ZM152 67.6931C152 56.2435 143.698 48.4096 134.063 48.4096C124.427 48.4096 116.126 56.2435 116.126 67.6931C116.126 79.0279 124.427 86.9766 134.063 86.9766C143.698 86.9766 152 79.0135 152 67.6931Z" fill="#EA4335"/>
<path d="M234.79 67.6931C234.79 86.0153 220.466 99.5166 202.887 99.5166C185.308 99.5166 170.984 86.0153 170.984 67.6931C170.984 49.2562 185.308 35.8696 202.887 35.8696C220.466 35.8696 234.79 49.2418 234.79 67.6931ZM220.824 67.6931C220.824 56.2435 212.522 48.4096 202.887 48.4096C193.252 48.4096 184.95 56.2435 184.95 67.6931C184.95 79.0279 193.252 86.9766 202.887 86.9766C212.522 86.9766 220.824 79.0135 220.824 67.6931Z" fill="#FBBC05"/>
<path d="M300.744 37.7922V94.9253C300.744 118.427 286.893 128.026 270.519 128.026C255.105 128.026 245.828 117.71 242.33 109.273L254.488 104.208C256.653 109.388 261.959 115.5 270.504 115.5C280.985 115.5 287.481 109.029 287.481 96.8479V92.2709H286.993C283.867 96.1305 277.845 99.5022 270.246 99.5022C254.345 99.5022 239.777 85.6422 239.777 67.8079C239.777 49.8444 254.345 35.8696 270.246 35.8696C277.831 35.8696 283.853 39.2414 286.993 42.9861H287.481V37.8066H300.744V37.7922ZM288.47 67.8079C288.47 56.6022 281 48.4096 271.494 48.4096C261.858 48.4096 253.786 56.6022 253.786 67.8079C253.786 78.8988 261.858 86.9766 271.494 86.9766C281 86.9766 288.47 78.8988 288.47 67.8079Z" fill="#4285F4"/>
<path d="M322.61 4.3042V97.5651H308.988V4.3042H322.61Z" fill="#34A853"/>
<path d="M375.69 78.1667L386.53 85.398C383.032 90.5776 374.601 99.5019 360.033 99.5019C341.967 99.5019 328.475 85.5272 328.475 67.6785C328.475 48.7537 342.082 35.855 358.47 35.855C374.973 35.855 383.046 48.9976 385.684 56.0998L387.132 59.7154L344.619 77.3345C347.874 83.7193 352.936 86.9763 360.033 86.9763C367.145 86.9763 372.077 83.4754 375.69 78.1667ZM342.325 66.7172L370.744 54.9089C369.181 50.9345 364.478 48.1654 358.943 48.1654C351.846 48.1654 341.967 54.4354 342.325 66.7172Z" fill="#EA4335"/>
<path d="M50.5991 59.4143V45.913H96.0656C96.5101 48.2661 96.7395 51.0495 96.7395 54.0626C96.7395 64.1921 93.9722 76.7178 85.0539 85.6421C76.3792 94.6813 65.2958 99.5021 50.6134 99.5021C23.3994 99.5021 0.515625 77.3204 0.515625 50.0882C0.515625 22.8561 23.3994 0.674316 50.6134 0.674316C65.6686 0.674316 76.3936 6.58562 84.4517 14.2904L74.9311 23.8174C69.1528 18.3939 61.3241 14.1756 50.5991 14.1756C30.7263 14.1756 15.1836 30.2021 15.1836 50.0882C15.1836 69.9743 30.7263 86.0008 50.5991 86.0008C63.4892 86.0008 70.8303 80.8213 75.5333 76.1152C79.3472 72.2987 81.8564 66.8465 82.8458 59.4L50.5991 59.4143Z" fill="#4285F4"/>
</svg>
