<svg width="24" height="25" viewBox="0 0 24 25" fill="none" xmlns="http://www.w3.org/2000/svg">
<path d="M24 12.7841C24 11.8978 23.9221 11.0455 23.7774 10.2273H12.2448V15.0682H18.8348C18.5454 16.625 17.6771 17.9432 16.3747 18.8296V21.9773H20.3488C22.6642 19.7955 24 16.5909 24 12.7841Z" fill="#4285F4"/>
<path d="M12.2451 25C15.5512 25 18.3228 23.8864 20.3488 21.9773L16.3747 18.8296C15.2838 19.5796 13.8926 20.0341 12.2451 20.0341C9.06139 20.0341 6.35636 17.8409 5.38789 14.8863H1.31364V18.1136C3.3285 22.1932 7.45841 25 12.2451 25Z" fill="#34A853"/>
<path d="M5.3878 14.8751C5.1429 14.1251 4.99819 13.3296 4.99819 12.5C4.99819 11.6705 5.1429 10.875 5.3878 10.125V6.89777H1.31356C0.478669 8.57959 0 10.4773 0 12.5C0 14.5228 0.478669 16.4205 1.31356 18.1023L4.48613 15.5796L5.3878 14.8751Z" fill="#FBBC05"/>
<path d="M12.2451 4.97728C14.0485 4.97728 15.6514 5.61365 16.9316 6.84092L20.4381 3.26137C18.3119 1.23864 15.5512 0 12.2451 0C7.45841 0 3.32842 2.80685 1.31356 6.89777L5.3878 10.125C6.35627 7.17049 9.06139 4.97728 12.2451 4.97728Z" fill="#EA4335"/>
</svg>
